<svg width="40" height="48" viewBox="0 0 40 48" fill="none" xmlns="http://www.w3.org/2000/svg">
<path d="M0 35C0 37.2 0.975 39.175 2.5 40.55V43.75C2.5 45.825 4.175 47.5 6.25 47.5C8.325 47.5 10 45.825 10 43.75V42.5H30V43.75C30 45.8 31.675 47.5 33.75 47.5C35.8 47.5 37.5 45.825 37.5 43.75V40.55C39.025 39.175 40 37.2 40 35V10C40 1.25 31.05 0 20 0C8.95 0 0 1.25 0 10V35ZM8.75 37.5C6.675 37.5 5 35.825 5 33.75C5 31.675 6.675 30 8.75 30C10.825 30 12.5 31.675 12.5 33.75C12.5 35.825 10.825 37.5 8.75 37.5ZM31.25 37.5C29.175 37.5 27.5 35.825 27.5 33.75C27.5 31.675 29.175 30 31.25 30C33.325 30 35 31.675 35 33.75C35 35.825 33.325 37.5 31.25 37.5ZM35 22.5H5V10H35V22.5Z" fill="black"/>
</svg>
