<svg width="48" height="48" viewBox="0 0 48 48" fill="none" xmlns="http://www.w3.org/2000/svg">
<path fill-rule="evenodd" clip-rule="evenodd" d="M3.05091 0.0798552C2.13602 0.261138 1.04375 1.08282 0.448924 2.0374C0.325723 2.23512 0.176595 2.69731 0.117576 3.0645C0.0537093 3.46239 0.00659981 6.46111 0.00101411 10.4882C-0.00636323 15.8643 0.0247269 17.5636 0.153303 18.8076C1.09402 27.9054 6.4193 36.6842 14.3804 42.2612C17.8308 44.6784 22.2078 46.4861 26.7729 47.3793C29.734 47.9587 30.3314 47.9914 38.0406 47.9959L45.1545 48L45.8395 47.655C46.714 47.2147 47.4492 46.4651 47.7338 45.7239C47.9426 45.1802 47.9532 44.9314 47.9761 40.0555L48 34.9559L47.6428 34.2885C47.2145 33.4883 46.6605 32.9557 45.8558 32.5706C45.2818 32.2959 45.1803 32.2829 43.0993 32.219C39.4557 32.1068 35.0445 32.1211 34.4361 32.2468C33.3285 32.4758 32.358 33.1155 31.896 33.9212C31.4375 34.7206 31.3715 35.0293 31.3067 36.6745L31.2429 38.2903L29.7147 37.6907C25.3306 35.9705 22.1025 33.9363 18.6109 30.6934C15.3426 27.658 12.4353 22.9523 11.1776 18.6621C10.7157 17.0865 10.321 15.3502 10.4062 15.2684C10.4473 15.2289 11.6666 15.1823 13.1157 15.1647L15.7505 15.1329L16.3078 14.832C16.9834 14.4671 17.5857 13.8495 17.9834 13.1136L18.2799 12.5651V7.68644V2.80772L18.0032 2.24282C17.3913 0.993664 16.3804 0.255899 15.0499 0.0875581C14.165 -0.0243955 3.61149 -0.031174 3.05091 0.0798552Z" fill="#1F65CE"/>
</svg>
