<svg width="48" height="48" viewBox="0 0 48 48" fill="none" xmlns="http://www.w3.org/2000/svg">
<path d="M24 10.6667V0H0V48H48V10.6667H24ZM9.6 42.6667H4.8V37.3333H9.6V42.6667ZM9.6 32H4.8V26.6667H9.6V32ZM9.6 21.3333H4.8V16H9.6V21.3333ZM9.6 10.6667H4.8V5.33333H9.6V10.6667ZM19.2 42.6667H14.4V37.3333H19.2V42.6667ZM19.2 32H14.4V26.6667H19.2V32ZM19.2 21.3333H14.4V16H19.2V21.3333ZM19.2 10.6667H14.4V5.33333H19.2V10.6667ZM43.2 42.6667H24V37.3333H28.8V32H24V26.6667H28.8V21.3333H24V16H43.2V42.6667ZM38.4 21.3333H33.6V26.6667H38.4V21.3333ZM38.4 32H33.6V37.3333H38.4V32Z" fill="#1F65CE"/>
</svg>
