<svg width="85" height="68" viewBox="0 0 85 68" fill="none" xmlns="http://www.w3.org/2000/svg">
<path d="M77.2727 0H7.72727C3.47727 0 0 3.6 0 8V60C0 64.4 3.47727 68 7.72727 68H77.2727C81.5227 68 85 64.4 85 60V8C85 3.6 81.5227 0 77.2727 0ZM77.2727 56C77.2727 58.2 75.5341 60 73.4091 60H42.5V8H73.4091C75.5341 8 77.2727 9.8 77.2727 12V56ZM70.5114 22H49.2614C47.6773 22 46.3636 23.36 46.3636 25C46.3636 26.64 47.6773 28 49.2614 28H70.5114C72.0955 28 73.4091 26.64 73.4091 25C73.4091 23.36 72.0955 22 70.5114 22ZM70.5114 32H49.2614C47.6773 32 46.3636 33.36 46.3636 35C46.3636 36.64 47.6773 38 49.2614 38H70.5114C72.0955 38 73.4091 36.64 73.4091 35C73.4091 33.36 72.0955 32 70.5114 32ZM70.5114 42H49.2614C47.6773 42 46.3636 43.36 46.3636 45C46.3636 46.64 47.6773 48 49.2614 48H70.5114C72.0955 48 73.4091 46.64 73.4091 45C73.4091 43.36 72.0955 42 70.5114 42Z" fill="#1F65CE"/>
</svg>
