<svg width="85" height="75" viewBox="0 0 85 75" fill="none" xmlns="http://www.w3.org/2000/svg">
<path d="M82.8145 20.7083L46.6461 1.02686C44.0749 -0.342286 40.9894 -0.342286 38.4182 1.02686L2.24981 20.7083C-0.749937 22.3342 -0.749937 26.6127 2.24981 28.2386L38.4182 47.92C40.9894 49.2892 44.0749 49.2892 46.6461 47.92L82.8145 28.2386C85.7285 26.6127 85.7285 22.3342 82.8145 20.7083ZM38.4182 56.4772L12.5347 42.3579V54.4235C12.5347 57.5896 14.2488 60.4135 16.9914 61.9538L38.4182 73.5915C40.9894 74.9606 44.0749 74.9606 46.6461 73.5915L68.0728 61.9538C70.8155 60.4135 72.5296 57.504 72.5296 54.4235V42.3579L46.6461 56.4772C44.0749 57.8463 40.9894 57.8463 38.4182 56.4772Z" fill="#1F65CE"/>
</svg>
