<svg width="40" height="48" viewBox="0 0 40 48" fill="none" xmlns="http://www.w3.org/2000/svg">
<path d="M20 0C8.95 0 0 1.26316 0 10.1053V34.1053C0 38.9811 3.925 42.9474 8.75 42.9474L5.875 45.8526C5.1 46.6358 5.65 48 6.775 48H33.25C34.375 48 34.925 46.6358 34.125 45.8526L31.25 42.9474C36.075 42.9474 40 38.9811 40 34.1053V10.1053C40 1.26316 31.05 0 20 0ZM8.75 37.8947C6.675 37.8947 5 36.2021 5 34.1053C5 32.0084 6.675 30.3158 8.75 30.3158C10.825 30.3158 12.5 32.0084 12.5 34.1053C12.5 36.2021 10.825 37.8947 8.75 37.8947ZM17.5 22.7368H5V10.1053H17.5V22.7368ZM31.25 37.8947C29.175 37.8947 27.5 36.2021 27.5 34.1053C27.5 32.0084 29.175 30.3158 31.25 30.3158C33.325 30.3158 35 32.0084 35 34.1053C35 36.2021 33.325 37.8947 31.25 37.8947ZM35 22.7368H22.5V10.1053H35V22.7368Z" fill="black"/>
</svg>
